# xmcd
#
# Track frame offsets: 
#        150
#        14084
#        29333
#        43737
#        57839
#        70639
#        89912
#        103859
#        117896
#        135108
#
# Disc length: 2060 seconds
#
# Revision: 1
# Processed by: cddbd v1.5.2PL0 Copyright (c) Steve Scherf et al.
# Submitted via: ExactAudioCopy v1.0b3
#
DISCID=87080a0a
DTITLE=Sérgio Mendes and Brasil '77 - Homecooking
DYEAR=1976
DGENRE=Jazz
TTITLE0=Sunny Day
TTITLE1=Hey People Hey
TTITLE2=It's So Obvious That I Love You
TTITLE3=Emorio
TTITLE4=Shakara
TTITLE5=Where to Now St Peter?
TTITLE6=Cut That Out
TTITLE7=Tell Me In a Whisper
TTITLE8=It's Up To You
TTITLE9=Home Cooking
EXTD=YEAR: 1976
EXTT0=
EXTT1=
EXTT2=
EXTT3=
EXTT4=
EXTT5=
EXTT6=
EXTT7=
EXTT8=
EXTT9=
PLAYORDER=
